<?xml version="1.0" encoding="UTF-8"?>
<!DOCTYPE svg PUBLIC "-//W3C//DTD SVG 1.1//EN" "http://www.w3.org/Graphics/SVG/1.1/DTD/svg11.dtd">
<svg xmlns="http://www.w3.org/2000/svg" version="1.1" width="885px" height="252px" style="shape-rendering:geometricPrecision; text-rendering:geometricPrecision; image-rendering:optimizeQuality; fill-rule:evenodd; clip-rule:evenodd" xmlns:xlink="http://www.w3.org/1999/xlink">
<g><path style="opacity:1" fill="#f6f6f6" d="M -0.5,-0.5 C 294.5,-0.5 589.5,-0.5 884.5,-0.5C 884.5,83.5 884.5,167.5 884.5,251.5C 589.5,251.5 294.5,251.5 -0.5,251.5C -0.5,167.5 -0.5,83.5 -0.5,-0.5 Z"/></g>
<g><path style="opacity:1" fill="#6578b7" d="M 583.5,15.5 C 583.5,17.1667 583.5,18.8333 583.5,20.5C 582.566,19.4324 582.232,18.099 582.5,16.5C 571.513,17.1661 560.513,17.4994 549.5,17.5C 549.5,25.8333 549.5,34.1667 549.5,42.5C 548.507,34.0161 548.174,25.3494 548.5,16.5C 560.17,16.2717 571.837,15.9384 583.5,15.5 Z"/></g>
<g><path style="opacity:1" fill="#2857bf" d="M 319.5,27.5 C 327.507,27.3336 335.507,27.5003 343.5,28C 344.15,34.5991 344.816,41.0991 345.5,47.5C 346.916,60.9756 347.583,74.6423 347.5,88.5C 347.881,107.844 348.548,127.177 349.5,146.5C 349.5,150.167 349.5,153.833 349.5,157.5C 342.492,157.334 335.492,157.5 328.5,158C 326.618,158.198 324.952,158.698 323.5,159.5C 320.833,159.5 318.167,159.5 315.5,159.5C 315.555,145.976 314.888,132.643 313.5,119.5C 312.549,88.8307 311.549,58.1641 310.5,27.5C 313.5,27.5 316.5,27.5 319.5,27.5 Z"/></g>
<g><path style="opacity:1" fill="#2957bf" d="M 583.5,20.5 C 584.055,40.3439 585.055,60.0105 586.5,79.5C 586.786,99.5166 587.453,119.517 588.5,139.5C 576.82,139.473 565.154,139.806 553.5,140.5C 553.762,139.022 553.429,137.689 552.5,136.5C 551.081,139.418 548.748,140.918 545.5,141C 529.5,142.088 513.5,142.755 497.5,143C 485.011,131.102 479.011,116.435 479.5,99C 478.796,76.7098 488.463,60.7098 508.5,51C 524.257,46.1477 537.757,49.6477 549,61.5C 549.5,55.1754 549.666,48.8421 549.5,42.5C 549.5,34.1667 549.5,25.8333 549.5,17.5C 560.513,17.4994 571.513,17.1661 582.5,16.5C 582.232,18.099 582.566,19.4324 583.5,20.5 Z"/></g>
<g><path style="opacity:1" fill="#d6f4fd" d="M 583.5,15.5 C 585.419,36.6351 586.419,57.9685 586.5,79.5C 585.055,60.0105 584.055,40.3439 583.5,20.5C 583.5,18.8333 583.5,17.1667 583.5,15.5 Z"/></g>
<g><path style="opacity:1" fill="#4361b5" d="M 775.5,40.5 C 769.158,40.3338 762.825,40.5005 756.5,41C 750.48,42.1013 744.48,43.268 738.5,44.5C 750.374,38.4854 762.708,37.152 775.5,40.5 Z"/></g>
<g><path style="opacity:1" fill="#5c7cb5" d="M 176.5,43.5 C 175.596,42.791 175.263,41.791 175.5,40.5C 164.513,41.1661 153.513,41.4994 142.5,41.5C 153.656,40.4273 164.989,39.7607 176.5,39.5C 176.5,40.8333 176.5,42.1667 176.5,43.5 Z"/></g>
<g><path style="opacity:1" fill="#4773b8" d="M 319.5,27.5 C 327.984,26.507 336.651,26.1736 345.5,26.5C 345.5,33.5 345.5,40.5 345.5,47.5C 344.816,41.0991 344.15,34.5991 343.5,28C 335.507,27.5003 327.507,27.3336 319.5,27.5 Z"/></g>
<g><path style="opacity:1" fill="#5772b6" d="M 657.5,44.5 C 652.821,44.3342 648.155,44.5008 643.5,45C 639.623,46.3689 635.623,47.2022 631.5,47.5C 639.841,43.6041 648.508,42.6041 657.5,44.5 Z"/></g>
<g><path style="opacity:1" fill="#2757c0" d="M 176.5,43.5 C 178.211,84.029 179.878,124.696 181.5,165.5C 176.833,165.5 172.167,165.5 167.5,165.5C 161.167,165.5 154.833,165.5 148.5,165.5C 148.024,158.005 147.358,150.671 146.5,143.5C 145.51,137.69 145.177,131.69 145.5,125.5C 145.5,122.5 145.5,119.5 145.5,116.5C 137.648,116.175 129.982,116.508 122.5,117.5C 121.5,117.5 120.5,117.5 119.5,117.5C 113.642,117.178 107.975,117.511 102.5,118.5C 101.793,134.664 101.793,150.997 102.5,167.5C 98.4809,167.646 94.4809,167.979 90.5,168.5C 83.8333,168.5 77.1667,168.5 70.5,168.5C 70.2183,146.815 69.7183,125.148 69,103.5C 70.1953,111.374 71.1953,119.374 72,127.5C 72.3756,120.491 72.8756,113.491 73.5,106.5C 71.7118,92.2355 70.3785,77.9022 69.5,63.5C 68.6684,71.4793 68.1684,79.4793 68,87.5C 67.6667,86.8333 67.3333,86.1667 67,85.5C 66.044,72.7157 66.544,60.049 68.5,47.5C 70.1667,47.5 71.8333,47.5 73.5,47.5C 73.1718,52.8746 73.5052,58.2079 74.5,63.5C 75.6286,57.8359 75.6286,52.1692 74.5,46.5C 77.0379,46.4928 79.5379,46.1595 82,45.5C 83.3756,45.3158 84.2089,44.6491 84.5,43.5C 89.1667,43.5 93.8333,43.5 98.5,43.5C 98.194,56.7038 98.5273,69.8705 99.5,83C 97.4415,87.0268 97.1082,91.1935 98.5,95.5C 99.3857,94.675 99.719,93.675 99.5,92.5C 101.331,93.0522 102.997,93.0522 104.5,92.5C 106.738,95.4327 107.738,95.0993 107.5,91.5C 108.5,91.5 109.5,91.5 110.5,91.5C 110.5,92.5 110.5,93.5 110.5,94.5C 120.172,94.6665 129.839,94.4998 139.5,94C 139.833,93.6667 140.167,93.3333 140.5,93C 131.5,92.6667 122.5,92.3333 113.5,92C 118.336,91.3196 123.003,90.4862 127.5,89.5C 132.772,88.5998 138.105,88.2665 143.5,88.5C 143.247,72.8312 142.913,57.1646 142.5,41.5C 153.513,41.4994 164.513,41.1661 175.5,40.5C 175.263,41.791 175.596,42.791 176.5,43.5 Z"/></g>
<g><path style="opacity:1" fill="#2857bf" d="M 775.5,40.5 C 794.589,44.1374 807.422,55.1374 814,73.5C 818.891,92.7006 815.391,110.034 803.5,125.5C 802.5,126.167 801.5,126.833 800.5,127.5C 791.33,127.892 782.33,128.558 773.5,129.5C 758.867,130.998 744.2,131.498 729.5,131C 728.956,130.283 728.289,129.783 727.5,129.5C 719.54,121.932 714.374,112.599 712,101.5C 707.662,79.4988 714.162,61.6655 731.5,48C 733.886,46.8068 736.22,45.6401 738.5,44.5C 744.48,43.268 750.48,42.1013 756.5,41C 762.825,40.5005 769.158,40.3338 775.5,40.5 Z"/></g>
<g><path style="opacity:1" fill="#5f7bb3" d="M 455.5,53.5 C 461.346,52.1834 467.346,52.1834 473.5,53.5C 473.376,54.1067 473.043,54.44 472.5,54.5C 467.025,53.5111 461.358,53.1778 455.5,53.5 Z"/></g>
<g><path style="opacity:1" fill="#4866ab" d="M 263.5,63.5 C 252.829,62.1953 242.162,62.1953 231.5,63.5C 232.263,62.7321 233.263,62.2321 234.5,62C 242.833,61.3333 251.167,61.3333 259.5,62C 261.058,62.21 262.391,62.71 263.5,63.5 Z"/></g>
<g><path style="opacity:1" fill="#2857bf" d="M 455.5,53.5 C 461.358,53.1778 467.025,53.5111 472.5,54.5C 470.632,59.4379 468.965,64.4379 467.5,69.5C 466.5,69.5 465.5,69.5 464.5,69.5C 464.785,71.288 464.452,72.9547 463.5,74.5C 462.201,75.09 461.368,76.09 461,77.5C 460.667,79.8333 460.333,82.1667 460,84.5C 459.667,83.8333 459.333,83.1667 459,82.5C 458.317,86.8906 457.484,91.2239 456.5,95.5C 455.325,95.281 454.325,95.6143 453.5,96.5C 454.309,98.0709 454.643,99.7376 454.5,101.5C 449.723,115.827 444.723,130.16 439.5,144.5C 435.146,146.348 430.48,147.015 425.5,146.5C 416.5,146.5 407.5,146.5 398.5,146.5C 397.833,145.5 397.167,144.5 396.5,143.5C 383.283,114.95 369.616,86.6162 355.5,58.5C 357.078,57.7022 358.744,57.2022 360.5,57C 371.833,56.3333 383.167,56.3333 394.5,57C 402.301,74.7687 409.967,92.6021 417.5,110.5C 423.817,91.8861 429.817,73.2194 435.5,54.5C 442.134,53.5033 448.8,53.17 455.5,53.5 Z"/></g>
<g><path style="opacity:1" fill="#2857bf" d="M 657.5,44.5 C 679.949,46.2887 694.282,57.9553 700.5,79.5C 701.331,86.1311 701.664,92.7978 701.5,99.5C 699.052,100.473 696.385,100.806 693.5,100.5C 676.988,100.629 660.654,101.296 644.5,102.5C 641.833,102.5 639.167,102.5 636.5,102.5C 636.617,112.116 641.45,117.45 651,118.5C 654.528,118.478 657.694,117.478 660.5,115.5C 662.257,114.708 663.591,113.375 664.5,111.5C 674.478,110.501 684.478,110.168 694.5,110.5C 696.555,117.505 694.555,123.005 688.5,127C 679.236,127.515 679.236,128.348 688.5,129.5C 687.271,130.281 685.938,130.781 684.5,131C 685.167,131.333 685.833,131.667 686.5,132C 681.061,132.636 675.728,132.136 670.5,130.5C 662.229,130.601 653.896,130.768 645.5,131C 643.5,131.333 641.5,131.667 639.5,132C 646.274,132.078 652.941,132.745 659.5,134C 646.325,134.007 633.325,134.84 620.5,136.5C 619.833,136.167 619.167,135.833 618.5,135.5C 603.169,120.806 597.669,102.806 602,81.5C 605.639,64.7007 615.472,53.3674 631.5,47.5C 635.623,47.2022 639.623,46.3689 643.5,45C 648.155,44.5008 652.821,44.3342 657.5,44.5 Z"/></g>
<g><path style="opacity:1" fill="#2857bf" d="M 263.5,63.5 C 280.386,68.1076 291.386,78.7743 296.5,95.5C 296.41,98.1522 297.076,100.485 298.5,102.5C 301.571,122.789 295.571,139.622 280.5,153C 275.904,156.362 270.904,158.862 265.5,160.5C 253.625,164.158 241.625,164.491 229.5,161.5C 212.186,156.351 201.019,145.018 196,127.5C 189.171,97.9958 199.337,76.8292 226.5,64C 228.134,63.5065 229.801,63.3398 231.5,63.5C 242.162,62.1953 252.829,62.1953 263.5,63.5 Z"/></g>
<g><path style="opacity:1" fill="#f1f3f5" d="M 645.5,71.5 C 652.445,70.4706 658.612,72.1373 664,76.5C 665.707,78.9088 666.54,81.5755 666.5,84.5C 656.168,84.8749 645.835,85.2082 635.5,85.5C 636.154,78.8561 639.488,74.1894 645.5,71.5 Z"/></g>
<g><path style="opacity:1" fill="#f3f5f6" d="M 756.5,69.5 C 771.522,67.862 779.522,74.5287 780.5,89.5C 780.646,105.191 772.979,112.358 757.5,111C 750.288,106.076 746.621,99.243 746.5,90.5C 745.854,81.463 749.187,74.463 756.5,69.5 Z"/></g>
<g><path style="opacity:1" fill="#3666bf" d="M 467.5,69.5 C 463.766,80.4649 459.433,91.1316 454.5,101.5C 454.643,99.7376 454.309,98.0709 453.5,96.5C 454.325,95.6143 455.325,95.281 456.5,95.5C 457.484,91.2239 458.317,86.8906 459,82.5C 459.333,83.1667 459.667,83.8333 460,84.5C 460.333,82.1667 460.667,79.8333 461,77.5C 461.368,76.09 462.201,75.09 463.5,74.5C 464.452,72.9547 464.785,71.288 464.5,69.5C 465.5,69.5 466.5,69.5 467.5,69.5 Z"/></g>
<g><path style="opacity:1" fill="#3659b8" d="M 84.5,43.5 C 84.2089,44.6491 83.3756,45.3158 82,45.5C 79.5379,46.1595 77.0379,46.4928 74.5,46.5C 75.6286,52.1692 75.6286,57.8359 74.5,63.5C 73.5052,58.2079 73.1718,52.8746 73.5,47.5C 71.8333,47.5 70.1667,47.5 68.5,47.5C 66.544,60.049 66.044,72.7157 67,85.5C 67.3333,86.1667 67.6667,86.8333 68,87.5C 68.1684,79.4793 68.6684,71.4793 69.5,63.5C 70.3785,77.9022 71.7118,92.2355 73.5,106.5C 72.8756,113.491 72.3756,120.491 72,127.5C 71.1953,119.374 70.1953,111.374 69,103.5C 69.7183,125.148 70.2183,146.815 70.5,168.5C 77.1667,168.5 83.8333,168.5 90.5,168.5C 90.5,168.833 90.5,169.167 90.5,169.5C 83.5,169.5 76.5,169.5 69.5,169.5C 69.7402,163.773 69.4069,158.106 68.5,152.5C 67.7154,123.652 66.3821,94.9858 64.5,66.5C 64.5,58.8333 64.5,51.1667 64.5,43.5C 71.1667,43.5 77.8333,43.5 84.5,43.5 Z"/></g>
<g><path style="opacity:1" fill="#f5f5f5" d="M 525.5,79.5 C 545.199,78.0301 553.699,87.0301 551,106.5C 546.426,119.368 537.592,123.535 524.5,119C 516.09,111.653 513.257,102.486 516,91.5C 517.994,86.4805 521.161,82.4805 525.5,79.5 Z"/></g>
<g><path style="opacity:1" fill="#97b8e9" d="M 100.5,81.5 C 101.473,83.9479 101.806,86.6146 101.5,89.5C 104.833,89.5 108.167,89.5 111.5,89.5C 108.038,90.4816 104.371,90.815 100.5,90.5C 100.5,87.5 100.5,84.5 100.5,81.5 Z"/></g>
<g><path style="opacity:1" fill="#2e5bb8" d="M 98.5,43.5 C 99.7578,55.9815 100.425,68.6482 100.5,81.5C 100.5,84.5 100.5,87.5 100.5,90.5C 104.371,90.815 108.038,90.4816 111.5,89.5C 116.833,89.5 122.167,89.5 127.5,89.5C 123.003,90.4862 118.336,91.3196 113.5,92C 122.5,92.3333 131.5,92.6667 140.5,93C 140.167,93.3333 139.833,93.6667 139.5,94C 129.839,94.4998 120.172,94.6665 110.5,94.5C 110.5,93.5 110.5,92.5 110.5,91.5C 109.5,91.5 108.5,91.5 107.5,91.5C 107.738,95.0993 106.738,95.4327 104.5,92.5C 102.997,93.0522 101.331,93.0522 99.5,92.5C 99.719,93.675 99.3857,94.675 98.5,95.5C 97.1082,91.1935 97.4415,87.0268 99.5,83C 98.5273,69.8705 98.194,56.7038 98.5,43.5 Z"/></g>
<g><path style="opacity:1" fill="#f3f4f6" d="M 240.5,91.5 C 252.1,89.8413 259.6,94.508 263,105.5C 266.494,118.413 262.327,127.579 250.5,133C 239.02,134.315 232.187,129.148 230,117.5C 227.721,106.405 231.221,97.7381 240.5,91.5 Z"/></g>
<g><path style="opacity:1" fill="#6c97ca" d="M 700.5,79.5 C 702.048,83.034 702.714,86.8673 702.5,91C 702.498,94.0208 702.164,96.8541 701.5,99.5C 701.664,92.7978 701.331,86.1311 700.5,79.5 Z"/></g>
<g><path style="opacity:1" fill="#6998c8" d="M 296.5,95.5 C 297.924,97.5145 298.59,99.8478 298.5,102.5C 297.076,100.485 296.41,98.1522 296.5,95.5 Z"/></g>
<g><path style="opacity:1" fill="#d6e3f5" d="M 693.5,100.5 C 692.391,101.29 691.058,101.79 689.5,102C 674.504,102.5 659.504,102.667 644.5,102.5C 660.654,101.296 676.988,100.629 693.5,100.5 Z"/></g>
<g><path style="opacity:1" fill="#b9dbf1" d="M 347.5,88.5 C 348.797,93.6202 349.631,98.9535 350,104.5C 350.443,118.169 350.943,131.835 351.5,145.5C 351.499,149.681 351.166,153.681 350.5,157.5C 350.815,153.629 350.482,149.962 349.5,146.5C 348.548,127.177 347.881,107.844 347.5,88.5 Z"/></g>
<g><path style="opacity:1" fill="#ede2f0" d="M 64.5,66.5 C 66.3821,94.9858 67.7154,123.652 68.5,152.5C 67.8393,141.496 66.6726,130.496 65,119.5C 64.5001,101.836 64.3334,84.1698 64.5,66.5 Z"/></g>
<g><path style="opacity:1" fill="#abbbe5" d="M 122.5,117.5 C 129.982,116.508 137.648,116.175 145.5,116.5C 145.5,119.5 145.5,122.5 145.5,125.5C 144.527,123.052 144.194,120.385 144.5,117.5C 137.167,117.5 129.833,117.5 122.5,117.5 Z"/></g>
<g><path style="opacity:1" fill="#e9edf5" d="M 821.5,210.5 C 833.996,209.53 846.663,208.863 859.5,208.5C 859.224,188.31 858.224,168.31 856.5,148.5C 856.5,142.833 856.5,137.167 856.5,131.5C 842.829,131.689 829.162,132.022 815.5,132.5C 816.609,131.71 817.942,131.21 819.5,131C 829.167,130.667 838.833,130.333 848.5,130C 850.256,129.798 851.922,129.298 853.5,128.5C 844.008,128.601 834.341,128.434 824.5,128C 822.744,127.798 821.078,127.298 819.5,126.5C 820.748,124.31 822.414,123.977 824.5,125.5C 829.254,123.173 833.921,123.506 838.5,126.5C 839.308,126.192 839.975,125.692 840.5,125C 845.918,123.92 851.252,123.42 856.5,123.5C 857.842,125.005 859.508,125.672 861.5,125.5C 863.694,133.726 864.028,142.059 862.5,150.5C 863.43,166.307 864.43,182.14 865.5,198C 865.167,201.167 864.833,204.333 864.5,207.5C 863.3,208.531 861.966,209.365 860.5,210C 847.504,210.5 834.504,210.667 821.5,210.5 Z"/></g>
<g><path style="opacity:1" fill="#cfe4f7" d="M 119.5,117.5 C 114.668,118.4 109.668,119.066 104.5,119.5C 104.5,132.833 104.5,146.167 104.5,159.5C 103.265,146.016 102.599,132.349 102.5,118.5C 107.975,117.511 113.642,117.178 119.5,117.5 Z"/></g>
<g><path style="opacity:1" fill="#365dba" d="M 700.5,111.5 C 697.771,120.092 693.104,127.592 686.5,134C 666.318,134.92 646.151,136.087 626,137.5C 623.967,137.494 622.134,137.161 620.5,136.5C 633.325,134.84 646.325,134.007 659.5,134C 652.941,132.745 646.274,132.078 639.5,132C 641.5,131.667 643.5,131.333 645.5,131C 653.896,130.768 662.229,130.601 670.5,130.5C 675.728,132.136 681.061,132.636 686.5,132C 685.833,131.667 685.167,131.333 684.5,131C 685.938,130.781 687.271,130.281 688.5,129.5C 679.236,128.348 679.236,127.515 688.5,127C 694.555,123.005 696.555,117.505 694.5,110.5C 684.478,110.168 674.478,110.501 664.5,111.5C 663.591,113.375 662.257,114.708 660.5,115.5C 661.237,113.695 662.237,112.029 663.5,110.5C 675.823,109.587 688.157,108.92 700.5,108.5C 700.5,109.5 700.5,110.5 700.5,111.5 Z"/></g>
<g><path style="opacity:1" fill="#d7e2f6" d="M 815.5,132.5 C 815.5,132.833 815.5,133.167 815.5,133.5C 799.475,133.65 783.475,134.316 767.5,135.5C 770.008,133.763 773.008,132.93 776.5,133C 789.496,132.5 802.496,132.333 815.5,132.5 Z"/></g>
<g><path style="opacity:1" fill="#395dac" d="M 856.5,148.5 C 855.512,143.36 855.179,138.026 855.5,132.5C 842.17,132.954 828.837,133.288 815.5,133.5C 815.5,133.167 815.5,132.833 815.5,132.5C 829.162,132.022 842.829,131.689 856.5,131.5C 856.5,137.167 856.5,142.833 856.5,148.5 Z"/></g>
<g><path style="opacity:1" fill="#eaf1f9" d="M 700.5,111.5 C 700.277,114.784 699.61,117.951 698.5,121C 698.957,121.414 699.291,121.914 699.5,122.5C 698.744,125.977 697.744,129.31 696.5,132.5C 698.167,132.5 699.833,132.5 701.5,132.5C 701.215,130.712 701.548,129.045 702.5,127.5C 703.386,128.325 703.719,129.325 703.5,130.5C 708.9,130.263 713.9,131.263 718.5,133.5C 721.856,132.49 724.856,131.157 727.5,129.5C 728.289,129.783 728.956,130.283 729.5,131C 744.2,131.498 758.867,130.998 773.5,129.5C 782.733,129.925 791.733,129.259 800.5,127.5C 801.5,126.833 802.5,126.167 803.5,125.5C 807.029,127.423 811.029,128.089 815.5,127.5C 815.5,128.5 815.5,129.5 815.5,130.5C 801.496,130.333 787.496,130.5 773.5,131C 749.937,132.222 726.437,133.722 703,135.5C 700.91,132.991 699.077,133.325 697.5,136.5C 698,136.833 698.5,137.167 699,137.5C 711.129,136.53 723.295,136.196 735.5,136.5C 735.5,136.833 735.5,137.167 735.5,137.5C 727.152,137.543 718.819,137.876 710.5,138.5C 690.629,138.535 670.962,139.535 651.5,141.5C 647.5,141.5 643.5,141.5 639.5,141.5C 631.597,141.136 623.93,141.803 616.5,143.5C 611.5,143.5 606.5,143.5 601.5,143.5C 600.047,142.175 600.381,141.342 602.5,141C 599.833,140.333 599.833,139.667 602.5,139C 601.5,138.667 600.5,138.333 599.5,138C 603.833,137.333 608.167,137.333 612.5,138C 611.128,138.402 609.795,138.902 608.5,139.5C 607.167,140.167 607.167,140.833 608.5,141.5C 612.233,141.993 615.899,141.326 619.5,139.5C 628.137,140.804 636.804,140.804 645.5,139.5C 637.942,138.187 630.442,138.187 623,139.5C 621.933,138.809 620.766,138.309 619.5,138C 618.748,137.329 618.414,136.496 618.5,135.5C 619.167,135.833 619.833,136.167 620.5,136.5C 622.134,137.161 623.967,137.494 626,137.5C 646.151,136.087 666.318,134.92 686.5,134C 693.104,127.592 697.771,120.092 700.5,111.5 Z"/></g>
<g><path style="opacity:1" fill="#5471b4" d="M 800.5,127.5 C 791.733,129.259 782.733,129.925 773.5,129.5C 782.33,128.558 791.33,127.892 800.5,127.5 Z"/></g>
<g><path style="opacity:1" fill="#c5bbe0" d="M 313.5,119.5 C 314.888,132.643 315.555,145.976 315.5,159.5C 314.176,146.354 313.509,133.021 313.5,119.5 Z"/></g>
<g><path style="opacity:1" fill="#4f6db3" d="M 761.5,135.5 C 753.051,137.072 744.384,137.739 735.5,137.5C 735.5,137.167 735.5,136.833 735.5,136.5C 744.155,135.917 752.822,135.584 761.5,135.5 Z"/></g>
<g><path style="opacity:1" fill="#4d6bb1" d="M 710.5,138.5 C 691.037,140.392 671.371,141.392 651.5,141.5C 670.962,139.535 690.629,138.535 710.5,138.5 Z"/></g>
<g><path style="opacity:1" fill="#2757bf" d="M 856.5,148.5 C 858.224,168.31 859.224,188.31 859.5,208.5C 846.663,208.863 833.996,209.53 821.5,210.5C 816.833,210.5 812.167,210.5 807.5,210.5C 796.162,210.333 784.828,210.5 773.5,211C 768.664,211.68 763.997,212.514 759.5,213.5C 758.167,213.5 756.833,213.5 755.5,213.5C 748.142,213.418 740.809,213.752 733.5,214.5C 719.829,214.333 706.163,214.5 692.5,215C 677.335,215.894 662.335,217.061 647.5,218.5C 597.365,221.426 547.365,224.093 497.5,226.5C 495.167,226.5 492.833,226.5 490.5,226.5C 478.452,225.855 466.785,226.522 455.5,228.5C 428.846,229.807 402.179,230.807 375.5,231.5C 375.166,216.483 374.499,201.483 373.5,186.5C 373.218,178.164 372.884,169.831 372.5,161.5C 372.5,159.5 372.5,157.5 372.5,155.5C 388.827,154.908 405.161,154.408 421.5,154C 440.371,153.083 459.037,151.583 477.5,149.5C 480.833,149.5 484.167,149.5 487.5,149.5C 499.036,149.691 510.369,149.025 521.5,147.5C 548.138,145.624 574.805,144.291 601.5,143.5C 606.5,143.5 611.5,143.5 616.5,143.5C 624.396,143.799 632.063,143.132 639.5,141.5C 643.5,141.5 647.5,141.5 651.5,141.5C 671.371,141.392 691.037,140.392 710.5,138.5C 718.819,137.876 727.152,137.543 735.5,137.5C 744.384,137.739 753.051,137.072 761.5,135.5C 763.5,135.5 765.5,135.5 767.5,135.5C 783.475,134.316 799.475,133.65 815.5,133.5C 828.837,133.288 842.17,132.954 855.5,132.5C 855.179,138.026 855.512,143.36 856.5,148.5 Z"/></g>
<g><path style="opacity:1" fill="#6480c0" d="M 639.5,141.5 C 632.063,143.132 624.396,143.799 616.5,143.5C 623.93,141.803 631.597,141.136 639.5,141.5 Z"/></g>
<g><path style="opacity:1" fill="#516fb6" d="M 521.5,147.5 C 510.369,149.025 499.036,149.691 487.5,149.5C 498.638,148.103 509.972,147.436 521.5,147.5 Z"/></g>
<g><path style="opacity:1" fill="#e2ecf9" d="M 396.5,143.5 C 397.167,144.5 397.833,145.5 398.5,146.5C 399.514,147.765 401.014,148.431 403,148.5C 410.667,147.996 418.167,147.329 425.5,146.5C 430.48,147.015 435.146,146.348 439.5,144.5C 442.641,145.321 445.975,145.821 449.5,146C 436.146,147.619 422.812,148.952 409.5,150C 421.495,150.5 433.495,150.667 445.5,150.5C 421.021,152.439 396.354,153.772 371.5,154.5C 371.198,157.059 371.532,159.393 372.5,161.5C 372.884,169.831 373.218,178.164 373.5,186.5C 370.837,175.8 370.003,164.8 371,153.5C 382.09,152.678 393.257,152.178 404.5,152C 405.167,151.667 405.833,151.333 406.5,151C 403.518,150.502 400.518,150.335 397.5,150.5C 397.007,148.194 396.674,145.861 396.5,143.5 Z"/></g>
<g><path style="opacity:1" fill="#506db6" d="M 398.5,146.5 C 407.5,146.5 416.5,146.5 425.5,146.5C 418.167,147.329 410.667,147.996 403,148.5C 401.014,148.431 399.514,147.765 398.5,146.5 Z"/></g>
<g><path style="opacity:1" fill="#4766b5" d="M 477.5,149.5 C 459.037,151.583 440.371,153.083 421.5,154C 405.161,154.408 388.827,154.908 372.5,155.5C 372.5,157.5 372.5,159.5 372.5,161.5C 371.532,159.393 371.198,157.059 371.5,154.5C 396.354,153.772 421.021,152.439 445.5,150.5C 456.164,150.088 466.83,149.755 477.5,149.5 Z"/></g>
<g><path style="opacity:1" fill="#a0b4e3" d="M 793.5,151.5 C 793.5,153.167 793.5,154.833 793.5,156.5C 792.566,155.432 792.232,154.099 792.5,152.5C 791.167,152.5 789.833,152.5 788.5,152.5C 788.808,154.924 788.474,157.257 787.5,159.5C 786.893,159.376 786.56,159.043 786.5,158.5C 787.468,156.393 787.802,154.059 787.5,151.5C 789.5,151.5 791.5,151.5 793.5,151.5 Z"/></g>
<g><path style="opacity:1" fill="#4e71b4" d="M 349.5,146.5 C 350.482,149.962 350.815,153.629 350.5,157.5C 341.67,158.442 332.67,159.108 323.5,159.5C 324.952,158.698 326.618,158.198 328.5,158C 335.492,157.5 342.492,157.334 349.5,157.5C 349.5,153.833 349.5,150.167 349.5,146.5 Z"/></g>
<g><path style="opacity:1" fill="#e7ecf5" d="M 802.5,156.5 C 806.792,157.416 811.126,157.416 815.5,156.5C 815.5,162.833 815.5,169.167 815.5,175.5C 810.581,175.062 805.581,174.895 800.5,175C 796.741,171.257 795.574,166.757 797,161.5C 798.704,159.627 800.537,157.96 802.5,156.5 Z"/></g>
<g><path style="opacity:1" fill="#c7d7ef" d="M 265.5,160.5 C 263.884,161.989 261.884,162.989 259.5,163.5C 252.189,164.665 244.856,164.831 237.5,164C 234.543,163.721 231.877,162.887 229.5,161.5C 241.625,164.491 253.625,164.158 265.5,160.5 Z"/></g>
<g><path style="opacity:1" fill="#5882c5" d="M 670.5,164.5 C 668.741,164.954 666.741,164.954 664.5,164.5C 664.5,166.167 664.5,167.833 664.5,169.5C 663.262,167.786 662.595,165.786 662.5,163.5C 665.279,163.279 667.946,163.612 670.5,164.5 Z"/></g>
<g><path style="opacity:1" fill="#f0f4f5" d="M 693.5,167.5 C 693.5,171.833 693.5,176.167 693.5,180.5C 692.5,180.5 691.5,180.5 690.5,180.5C 690.5,175.833 690.5,171.167 690.5,166.5C 687.302,167.036 684.635,166.369 682.5,164.5C 684.455,162.674 686.788,162.174 689.5,163C 691.751,163.748 693.084,165.248 693.5,167.5 Z"/></g>
<g><path style="opacity:1" fill="#5365a7" d="M 146.5,143.5 C 147.358,150.671 148.024,158.005 148.5,165.5C 154.833,165.5 161.167,165.5 167.5,165.5C 160.687,166.491 153.687,166.825 146.5,166.5C 146.5,158.833 146.5,151.167 146.5,143.5 Z"/></g>
<g><path style="opacity:1" fill="#e5eff7" d="M 747.5,159.5 C 748.5,159.5 749.5,159.5 750.5,159.5C 750.5,161.167 750.5,162.833 750.5,164.5C 748.61,164.297 747.11,164.963 746,166.5C 745.501,170.486 745.334,174.486 745.5,178.5C 743.833,178.5 742.167,178.5 740.5,178.5C 740.5,172.5 740.5,166.5 740.5,160.5C 742.467,160.261 744.301,160.594 746,161.5C 746.717,160.956 747.217,160.289 747.5,159.5 Z"/></g>
<g><path style="opacity:1" fill="#d4dbf6" d="M 678.5,164.5 C 679.833,165.833 681.167,165.833 682.5,164.5C 684.635,166.369 687.302,167.036 690.5,166.5C 690.5,171.167 690.5,175.833 690.5,180.5C 691.5,180.5 692.5,180.5 693.5,180.5C 693.5,176.167 693.5,171.833 693.5,167.5C 694.486,171.97 694.819,176.637 694.5,181.5C 692.833,181.5 691.167,181.5 689.5,181.5C 689.666,177.154 689.499,172.821 689,168.5C 687,167.167 685,167.167 683,168.5C 682.825,173.019 682.325,177.353 681.5,181.5C 681.5,176.833 681.5,172.167 681.5,167.5C 680.5,167.5 679.5,167.5 678.5,167.5C 678.5,166.5 678.5,165.5 678.5,164.5 Z"/></g>
<g><path style="opacity:1" fill="#2f59bb" d="M 803.5,161.5 C 811.064,161.891 812.397,165.057 807.5,171C 801.331,170.083 799.998,166.916 803.5,161.5 Z"/></g>
<g><path style="opacity:1" fill="#4c73bb" d="M 102.5,118.5 C 102.599,132.349 103.265,146.016 104.5,159.5C 104.784,162.777 104.451,165.943 103.5,169C 99.1794,169.499 94.8461,169.666 90.5,169.5C 90.5,169.167 90.5,168.833 90.5,168.5C 94.4809,167.979 98.4809,167.646 102.5,167.5C 101.793,150.997 101.793,134.664 102.5,118.5 Z"/></g>
<g><path style="opacity:1" fill="#e8edf5" d="M 632.5,161.5 C 634.167,161.5 635.833,161.5 637.5,161.5C 637.5,162.833 637.5,164.167 637.5,165.5C 638.833,165.5 640.167,165.5 641.5,165.5C 641.5,166.833 641.5,168.167 641.5,169.5C 640.167,169.5 638.833,169.5 637.5,169.5C 637.616,172.86 637.949,176.193 638.5,179.5C 639.833,179.5 641.167,179.5 642.5,179.5C 642.5,180.833 642.5,182.167 642.5,183.5C 638.713,184.186 635.546,183.186 633,180.5C 632.806,176.198 631.973,172.032 630.5,168C 631.618,165.941 632.285,163.774 632.5,161.5 Z"/></g>
<g><path style="opacity:1" fill="#eff3f6" d="M 678.5,164.5 C 678.5,165.5 678.5,166.5 678.5,167.5C 679.5,167.5 680.5,167.5 681.5,167.5C 681.5,172.167 681.5,176.833 681.5,181.5C 680.167,181.5 678.833,181.5 677.5,181.5C 677.666,177.486 677.499,173.486 677,169.5C 674.667,166.833 672.333,166.833 670,169.5C 669.501,173.821 669.334,178.154 669.5,182.5C 667.833,182.5 666.167,182.5 664.5,182.5C 664.5,178.167 664.5,173.833 664.5,169.5C 664.5,167.833 664.5,166.167 664.5,164.5C 666.741,164.954 668.741,164.954 670.5,164.5C 673.167,163.167 675.833,163.167 678.5,164.5 Z"/></g>
<g><path style="opacity:1" fill="#427cc6" d="M 698.5,162.5 C 698.884,170.831 699.218,179.164 699.5,187.5C 697.96,182.935 697.293,178.102 697.5,173C 697.501,169.317 697.835,165.817 698.5,162.5 Z"/></g>
<g><path style="opacity:1" fill="#ecf0f6" d="M 724.5,160.5 C 734.876,159.706 739.043,164.373 737,174.5C 733.938,178.943 729.771,180.443 724.5,179C 722.697,178.363 721.364,177.197 720.5,175.5C 719.341,171.878 719.175,168.211 720,164.5C 721.992,163.672 723.492,162.339 724.5,160.5 Z"/></g>
<g><path style="opacity:1" fill="#335bbb" d="M 725.5,165.5 C 732.303,164.735 734.303,167.568 731.5,174C 729.105,176.145 726.938,175.978 725,173.5C 724.278,170.739 724.445,168.073 725.5,165.5 Z"/></g>
<g><path style="opacity:1" fill="#edf1f7" d="M 431.5,168.5 C 433.167,168.5 434.833,168.5 436.5,168.5C 437.167,172.5 435.5,174.167 431.5,173.5C 431.5,171.833 431.5,170.167 431.5,168.5 Z"/></g>
<g><path style="opacity:1" fill="#e0e9f5" d="M 547.5,169.5 C 548.5,169.5 549.5,169.5 550.5,169.5C 550.5,171.167 550.5,172.833 550.5,174.5C 549.07,174.421 547.736,174.754 546.5,175.5C 545.508,179.783 545.174,184.116 545.5,188.5C 543.833,188.5 542.167,188.5 540.5,188.5C 539.835,182.523 539.502,176.523 539.5,170.5C 541.591,170.318 543.591,170.652 545.5,171.5C 546.522,171.145 547.189,170.478 547.5,169.5 Z"/></g>
<g><path style="opacity:1" fill="#eceff6" d="M 648.5,164.5 C 657.154,163.302 661.487,166.968 661.5,175.5C 657.5,175.5 653.5,175.5 649.5,175.5C 649.458,177.849 650.625,179.182 653,179.5C 654.473,177.954 656.306,176.954 658.5,176.5C 659.5,176.833 660.5,177.167 661.5,177.5C 655.575,185.468 649.742,185.468 644,177.5C 643.333,174.833 643.333,172.167 644,169.5C 645.707,167.963 647.207,166.296 648.5,164.5 Z"/></g>
<g><path style="opacity:1" fill="#91a6d3" d="M 649.5,170.5 C 651.5,171.833 653.5,171.833 655.5,170.5C 656.043,170.56 656.376,170.893 656.5,171.5C 653.833,172.833 651.167,172.833 648.5,171.5C 648.624,170.893 648.957,170.56 649.5,170.5 Z"/></g>
<g><path style="opacity:1" fill="#3658b6" d="M 655.5,170.5 C 653.5,171.833 651.5,171.833 649.5,170.5C 651.5,167.833 653.5,167.833 655.5,170.5 Z"/></g>
<g><path style="opacity:1" fill="#eaf0f5" d="M 608.5,166.5 C 616.906,165.583 621.239,169.25 621.5,177.5C 617.116,177.174 612.783,177.508 608.5,178.5C 610.915,182.268 613.581,182.434 616.5,179C 618.259,178.202 619.926,178.369 621.5,179.5C 615.575,187.468 609.742,187.468 604,179.5C 602.381,173.968 603.881,169.634 608.5,166.5 Z"/></g>
<g><path style="opacity:1" fill="#3759bd" d="M 610.5,170.5 C 612.665,170.116 614.332,170.783 615.5,172.5C 613.5,173.833 611.5,173.833 609.5,172.5C 609.863,171.817 610.196,171.15 610.5,170.5 Z"/></g>
<g><path style="opacity:1" fill="#edf2f6" d="M 793.5,156.5 C 793.5,162.833 793.5,169.167 793.5,175.5C 789.158,175.739 784.824,176.073 780.5,176.5C 775.404,173.633 773.571,169.3 775,163.5C 777.403,158.379 781.237,156.712 786.5,158.5C 786.56,159.043 786.893,159.376 787.5,159.5C 788.474,157.257 788.808,154.924 788.5,152.5C 789.833,152.5 791.167,152.5 792.5,152.5C 792.232,154.099 792.566,155.432 793.5,156.5 Z"/></g>
<g><path style="opacity:1" fill="#3759b7" d="M 781.5,162.5 C 787,161.831 789.167,164.165 788,169.5C 785.383,173.476 782.716,173.476 780,169.5C 779.167,166.829 779.667,164.496 781.5,162.5 Z"/></g>
<g><path style="opacity:1" fill="#edf1f4" d="M 756.5,159.5 C 761.5,159.5 766.5,159.5 771.5,159.5C 771.5,165.5 771.5,171.5 771.5,177.5C 766.581,177.062 761.581,176.895 756.5,177C 751.208,171.168 751.208,165.335 756.5,159.5 Z"/></g>
<g><path style="opacity:1" fill="#3059bc" d="M 760.5,163.5 C 766.758,164.477 768.091,167.644 764.5,173C 759.141,174.143 756.974,171.976 758,166.5C 758.698,165.309 759.531,164.309 760.5,163.5 Z"/></g>
<g><path style="opacity:1" fill="#ecf0f6" d="M 699.5,187.5 C 699.218,179.164 698.884,170.831 698.5,162.5C 700.467,162.261 702.301,162.594 704,163.5C 709.689,160.176 714.022,161.509 717,167.5C 718.62,178.559 714.286,182.226 704,178.5C 704.337,182.079 704.504,185.746 704.5,189.5C 702.219,189.923 700.552,189.256 699.5,187.5 Z"/></g>
<g><path style="opacity:1" fill="#315abd" d="M 705.5,166.5 C 711,165.831 713.167,168.165 712,173.5C 709.333,177.5 706.667,177.5 704,173.5C 703.167,170.829 703.667,168.496 705.5,166.5 Z"/></g>
<g><path style="opacity:1" fill="#4b62b0" d="M 793.5,151.5 C 794.493,159.65 794.826,167.983 794.5,176.5C 789.656,177.217 784.989,177.217 780.5,176.5C 784.824,176.073 789.158,175.739 793.5,175.5C 793.5,169.167 793.5,162.833 793.5,156.5C 793.5,154.833 793.5,153.167 793.5,151.5 Z"/></g>
<g><path style="opacity:1" fill="#ecf0f6" d="M 524.5,170.5 C 532.859,169.531 537.192,173.198 537.5,181.5C 533.116,181.174 528.783,181.508 524.5,182.5C 525.27,184.272 526.603,185.272 528.5,185.5C 530.707,183.486 533.373,182.486 536.5,182.5C 534.792,188.526 530.792,190.693 524.5,189C 519.777,185.746 518.277,181.246 520,175.5C 521.025,173.313 522.525,171.646 524.5,170.5 Z"/></g>
<g><path style="opacity:1" fill="#4764b6" d="M 526.5,174.5 C 529.588,174.197 531.254,175.53 531.5,178.5C 529.167,178.5 526.833,178.5 524.5,178.5C 524.527,176.801 525.194,175.467 526.5,174.5 Z"/></g>
<g><path style="opacity:1" fill="#e6e1f1" d="M 566.5,186.5 C 567.814,184.085 568.481,181.252 568.5,178C 568.167,175.167 567.833,172.333 567.5,169.5C 566.784,170.311 565.95,170.978 565,171.5C 562.23,170.652 559.397,170.319 556.5,170.5C 559.216,167.866 562.049,167.866 565,170.5C 566.401,168.808 568.234,168.141 570.5,168.5C 571.11,174.815 571.443,181.149 571.5,187.5C 569.585,187.784 567.919,187.451 566.5,186.5 Z"/></g>
<g><path style="opacity:1" fill="#e9edf6" d="M 594.5,161.5 C 596.766,161.141 598.599,161.808 600,163.5C 600.5,170.826 600.666,178.159 600.5,185.5C 598.533,185.739 596.699,185.406 595,184.5C 589.196,188.031 584.862,186.697 582,180.5C 580.345,175.063 581.845,170.897 586.5,168C 588.899,167.289 591.232,167.456 593.5,168.5C 594.474,166.257 594.808,163.924 594.5,161.5 Z"/></g>
<g><path style="opacity:1" fill="#2f59c0" d="M 589.5,171.5 C 595.572,172.712 596.905,175.878 593.5,181C 588.141,182.143 585.974,179.976 587,174.5C 588.045,173.627 588.878,172.627 589.5,171.5 Z"/></g>
<g><path style="opacity:1" fill="#e4edf6" d="M 452.5,174.5 C 454.167,174.5 455.833,174.5 457.5,174.5C 455.628,180.783 453.961,187.116 452.5,193.5C 450.167,193.5 447.833,193.5 445.5,193.5C 443.5,187.5 441.5,181.5 439.5,175.5C 441.288,175.215 442.955,175.548 444.5,176.5C 446.451,179.954 447.951,183.621 449,187.5C 450.019,183.088 451.186,178.755 452.5,174.5 Z"/></g>
<g><path style="opacity:1" fill="#ebeff6" d="M 464.5,173.5 C 472.761,172.769 477.094,176.436 477.5,184.5C 473.116,184.174 468.783,184.508 464.5,185.5C 465.212,187.046 466.378,188.046 468,188.5C 470.502,186.566 473.336,185.566 476.5,185.5C 476.201,188.642 474.534,190.809 471.5,192C 461.777,192.779 457.944,188.279 460,178.5C 461.193,176.503 462.693,174.836 464.5,173.5 Z"/></g>
<g><path style="opacity:1" fill="#4a6dc0" d="M 466.5,177.5 C 469.588,177.197 471.254,178.53 471.5,181.5C 469.076,181.808 466.743,181.474 464.5,180.5C 465.193,179.482 465.859,178.482 466.5,177.5 Z"/></g>
<g><path style="opacity:1" fill="#dcecf6" d="M 490.5,165.5 C 492.167,165.5 493.833,165.5 495.5,165.5C 495.559,168.049 494.559,170.049 492.5,171.5C 493.325,172.386 494.325,172.719 495.5,172.5C 493.875,178.694 493.208,185.028 493.5,191.5C 491.833,191.5 490.167,191.5 488.5,191.5C 488.437,185.825 487.437,180.325 485.5,175C 486.654,171.477 488.321,168.311 490.5,165.5 Z"/></g>
<g><path style="opacity:1" fill="#ecf3f6" d="M 566.5,186.5 C 555.75,189.599 551.25,185.266 553,173.5C 553.422,171.574 554.589,170.574 556.5,170.5C 559.397,170.319 562.23,170.652 565,171.5C 565.95,170.978 566.784,170.311 567.5,169.5C 567.833,172.333 568.167,175.167 568.5,178C 568.481,181.252 567.814,184.085 566.5,186.5 Z"/></g>
<g><path style="opacity:1" fill="#3058be" d="M 559.5,173.5 C 565.204,173.146 567.037,175.813 565,181.5C 562.756,183.994 560.423,183.994 558,181.5C 557.109,178.502 557.609,175.836 559.5,173.5 Z"/></g>
<g><path style="opacity:1" fill="#d9e7f0" d="M 431.5,175.5 C 433.167,175.5 434.833,175.5 436.5,175.5C 436.966,181.491 437.299,187.491 437.5,193.5C 435.234,193.859 433.401,193.192 432,191.5C 431.501,186.177 431.334,180.844 431.5,175.5 Z"/></g>
<g><path style="opacity:1" fill="#e7eef6" d="M 511.5,171.5 C 513.144,171.286 514.644,171.62 516,172.5C 516.499,178.157 516.666,183.824 516.5,189.5C 511.828,190.003 507.161,190.169 502.5,190C 500.232,188.442 499.066,186.276 499,183.5C 498.501,179.848 498.335,176.182 498.5,172.5C 500.167,172.5 501.833,172.5 503.5,172.5C 503.335,176.182 503.501,179.848 504,183.5C 506.025,185.725 508.358,186.059 511,184.5C 511.499,180.179 511.666,175.846 511.5,171.5 Z"/></g>
<g><path style="opacity:1" fill="#ebf0f5" d="M 423.5,171.5 C 425.167,171.5 426.833,171.5 428.5,171.5C 426.34,179.14 424.34,186.806 422.5,194.5C 419.606,194.958 417.106,194.291 415,192.5C 412.571,185.809 409.737,179.309 406.5,173C 408.473,172.505 410.473,172.338 412.5,172.5C 414.342,177.501 416.342,182.501 418.5,187.5C 420.58,182.261 422.247,176.928 423.5,171.5 Z"/></g>
<g><path style="opacity:1" fill="#4869b7" d="M 807.5,210.5 C 791.674,211.843 775.674,212.843 759.5,213.5C 763.997,212.514 768.664,211.68 773.5,211C 784.828,210.5 796.162,210.333 807.5,210.5 Z"/></g>
<g><path style="opacity:1" fill="#4e6dba" d="M 733.5,214.5 C 705.029,216.636 676.362,217.969 647.5,218.5C 662.335,217.061 677.335,215.894 692.5,215C 706.163,214.5 719.829,214.333 733.5,214.5 Z"/></g>
<g><path style="opacity:1" fill="#ebeef6" d="M 497.5,226.5 C 547.365,224.093 597.365,221.426 647.5,218.5C 676.362,217.969 705.029,216.636 733.5,214.5C 740.809,213.752 748.142,213.418 755.5,213.5C 751.1,215.051 746.434,215.884 741.5,216C 731.5,216.333 721.5,216.667 711.5,217C 710.833,217.333 710.167,217.667 709.5,218C 728.204,218.734 746.87,218.234 765.5,216.5C 770.862,216.548 776.196,216.882 781.5,217.5C 783.39,216.388 785.39,215.554 787.5,215C 801.888,214.931 816.221,214.264 830.5,213C 841.167,212.333 851.833,212.333 862.5,213C 862.833,213.333 863.167,213.667 863.5,214C 862.377,215.044 861.044,215.71 859.5,216C 852.83,216.389 846.164,216.223 839.5,215.5C 831.284,216.548 823.117,217.548 815,218.5C 811.534,217.798 808.034,217.131 804.5,216.5C 792.917,217.042 781.417,218.375 770,220.5C 757.977,218.667 746.144,219.334 734.5,222.5C 730.88,221.576 727.213,220.909 723.5,220.5C 696.504,222.012 669.504,223.512 642.5,225C 633.459,225.892 624.459,227.059 615.5,228.5C 607.902,228.366 600.235,228.033 592.5,227.5C 569.189,229.221 545.856,230.055 522.5,230C 528.167,229.667 533.833,229.333 539.5,229C 540.938,228.781 542.271,228.281 543.5,227.5C 528.181,226.501 512.848,226.167 497.5,226.5 Z"/></g>
<g><path style="opacity:1" fill="#516ebc" d="M 490.5,226.5 C 478.997,227.361 467.33,228.028 455.5,228.5C 466.785,226.522 478.452,225.855 490.5,226.5 Z"/></g>
</svg>
