<?xml version="1.0" standalone="no"?>
<!DOCTYPE svg PUBLIC "-//W3C//DTD SVG 20010904//EN"
 "http://www.w3.org/TR/2001/REC-SVG-20010904/DTD/svg10.dtd">
<svg version="1.0" xmlns="http://www.w3.org/2000/svg"
 width="885.000000pt" height="252.000000pt" viewBox="0 0 885.000000 252.000000"
 preserveAspectRatio="xMidYMid meet">

<g transform="translate(0.000000,252.000000) scale(0.100000,-0.100000)"
fill="#FFFFFF" stroke="none">
<path d="M5656 2349 c-87 -4 -160 -10 -163 -13 -3 -3 -1 -101 4 -218 6 -117 9
-215 7 -217 -2 -2 -20 11 -41 29 -20 18 -62 45 -93 59 -47 22 -69 26 -150 26
-86 0 -101 -3 -160 -31 -84 -40 -124 -75 -172 -148 -60 -93 -83 -180 -82 -311
0 -70 7 -133 17 -174 23 -84 79 -189 125 -233 l37 -36 255 13 c238 12 255 14
271 34 22 26 29 27 29 1 0 -20 4 -21 133 -15 72 3 151 8 173 11 42 5 42 5 38
42 -2 20 -13 269 -24 552 -21 540 -27 641 -38 638 -4 0 -78 -5 -166 -9z m-230
-648 c18 -11 45 -36 60 -57 24 -31 29 -48 33 -111 2 -53 -2 -87 -14 -119 -31
-82 -121 -125 -211 -103 -154 39 -193 284 -61 380 34 24 50 29 101 29 42 0 71
-6 92 -19z"/>
<path d="M3185 2243 l-80 -4 28 -657 c16 -361 30 -658 31 -659 4 -5 326 11
334 16 6 4 -2 258 -19 641 -15 349 -28 643 -29 653 0 18 -33 19 -265 10z"/>
<path d="M1591 2109 c-85 -4 -157 -12 -160 -16 -4 -4 -4 -71 0 -148 4 -77 7
-179 8 -227 l1 -87 -52 -5 c-29 -3 -126 -8 -214 -12 l-161 -6 -7 169 c-4 92
-9 199 -12 237 l-6 68 -167 -7 c-91 -4 -168 -9 -170 -11 -4 -3 32 -887 46
-1139 l6 -110 161 7 c88 4 166 10 171 12 7 2 7 85 1 245 -5 142 -5 246 0 251
5 4 102 11 215 15 l206 8 7 -199 c4 -110 9 -223 13 -252 l6 -54 166 7 c91 4
167 9 169 10 2 2 -8 263 -22 581 -15 319 -26 600 -26 627 0 32 -4 47 -12 46
-7 -1 -82 -6 -167 -10z"/>
<path d="M7475 2101 c-165 -47 -287 -164 -335 -320 -25 -81 -27 -243 -4 -322
24 -82 70 -160 124 -214 l48 -48 349 17 348 17 32 37 c48 55 100 159 112 226
53 287 -87 532 -348 610 -74 22 -246 20 -326 -3z m252 -305 c48 -31 75 -88 81
-167 11 -150 -79 -248 -205 -224 -48 9 -107 68 -122 120 -15 55 -14 159 3 198
39 93 159 129 243 73z"/>
<path d="M6420 2065 c-191 -33 -328 -150 -381 -327 -18 -59 -21 -88 -17 -191
4 -110 8 -130 37 -200 32 -74 109 -175 150 -196 9 -4 161 0 339 8 l323 17 35
39 c36 42 87 140 98 189 l7 29 -83 -6 c-46 -4 -125 -7 -176 -7 -93 0 -93 0
-125 -34 -41 -43 -67 -56 -112 -56 -76 0 -133 49 -150 128 -7 32 -6 32 32 32
112 2 615 28 620 33 13 13 12 66 -3 151 -35 213 -173 354 -380 391 -94 17
-116 17 -214 0z m191 -288 c31 -21 69 -90 56 -103 -3 -3 -73 -8 -156 -11 -138
-6 -151 -5 -151 11 0 37 51 105 90 119 8 3 40 6 71 6 43 1 64 -4 90 -22z"/>
<path d="M4512 1980 c-78 -4 -144 -9 -147 -11 -2 -3 -44 -132 -91 -287 -48
-155 -90 -280 -93 -277 -4 2 -58 125 -121 274 l-113 271 -101 -1 c-56 -1 -142
-4 -192 -8 l-91 -6 139 -290 c308 -641 296 -617 315 -612 10 3 97 9 194 12
l176 7 78 207 c43 113 122 323 176 465 55 143 99 261 99 263 0 3 -26 3 -228
-7z"/>
<path d="M2330 1884 c-290 -76 -441 -347 -359 -644 60 -219 220 -343 460 -357
266 -16 483 128 545 361 18 68 18 218 -1 291 -47 178 -197 321 -374 355 -75
14 -206 11 -271 -6z m232 -309 c54 -41 71 -80 76 -170 4 -71 1 -90 -18 -129
-27 -56 -68 -87 -125 -94 -59 -6 -88 3 -130 39 -56 50 -80 160 -54 254 14 49
41 85 82 108 42 24 132 19 169 -8z"/>
<path d="M6750 1115 c-910 -46 -1954 -97 -2320 -115 -366 -17 -674 -33 -685
-35 -20 -4 -20 -4 -1 -387 10 -211 19 -384 20 -384 0 -1 116 5 256 12 140 7
489 24 775 39 696 34 3292 162 3575 176 124 6 227 13 229 15 2 2 -3 160 -13
351 -9 192 -16 363 -16 381 l0 32 -82 -1 c-46 -1 -828 -39 -1738 -84z m1184
-132 c3 -10 6 -65 7 -123 l3 -105 -73 -2 c-65 -2 -75 0 -97 22 -18 18 -24 35
-24 67 1 66 44 105 101 93 28 -6 29 -5 29 29 0 31 3 36 24 36 15 0 27 -7 30
-17z m226 -127 l0 -93 -75 -1 c-68 -1 -76 1 -95 25 -13 16 -20 41 -20 67 0 71
29 92 126 94 l64 1 0 -93z m-445 62 c2 -7 5 -50 7 -96 l3 -83 -35 1 c-19 0
-49 -2 -67 -6 -27 -5 -37 -1 -63 24 -37 38 -41 95 -9 136 18 23 27 26 75 25
30 -1 57 1 61 4 10 11 23 8 28 -5z m-240 -8 c3 5 13 10 21 10 22 0 18 -47 -5
-55 -26 -8 -34 -37 -26 -91 6 -44 6 -44 -24 -44 l-31 0 0 74 c0 41 -3 81 -6
89 -6 18 34 28 53 14 6 -4 14 -3 18 3z m-136 -15 c34 -17 41 -33 41 -86 0
-111 -159 -123 -186 -15 -13 55 35 115 94 116 13 0 36 -7 51 -15z m-1335 -17
c3 -13 7 -67 8 -121 l3 -98 -30 2 c-16 1 -42 -2 -58 -6 -36 -10 -81 10 -96 41
-34 75 7 149 80 142 38 -3 39 -3 39 29 0 28 3 33 25 33 17 0 26 -7 29 -22z
m376 2 c0 -13 7 -20 20 -20 13 0 20 -7 20 -20 0 -13 -7 -20 -20 -20 -22 0 -25
-15 -14 -69 5 -21 12 -31 25 -31 12 0 19 -7 19 -19 0 -41 -75 -36 -91 6 -5 13
-9 42 -9 64 0 21 -4 39 -10 39 -5 0 -10 11 -10 25 0 14 5 25 11 25 6 0 8 9 4
20 -5 17 -2 20 24 20 24 0 31 -4 31 -20z m771 -9 c39 -40 41 -100 3 -138 -21
-21 -32 -25 -67 -21 l-42 5 3 -48 c4 -47 3 -49 -22 -49 -31 0 -33 8 -39 158
l-5 113 39 -3 c21 -1 42 1 45 5 16 16 57 5 85 -22z m-226 -6 c22 -21 25 -33
25 -95 0 -68 -1 -70 -25 -70 -23 0 -24 4 -27 61 -3 65 -19 88 -52 76 -12 -5
-16 -20 -16 -72 0 -62 -1 -65 -24 -65 -26 0 -36 21 -36 82 0 42 -23 63 -52 47
-14 -8 -18 -23 -18 -74 0 -63 -1 -65 -25 -65 -24 0 -25 3 -27 65 -4 136 -12
120 66 123 39 1 74 -3 82 -9 10 -8 19 -7 36 5 32 23 65 20 93 -9z m-330 -20
c16 -15 25 -36 25 -55 l0 -30 -66 0 c-58 0 -65 -2 -54 -15 14 -17 60 -21 60
-5 0 6 14 10 30 10 34 0 37 -9 12 -40 -11 -13 -33 -23 -59 -27 -37 -5 -46 -2
-73 25 -63 64 -27 162 60 162 30 0 47 -6 65 -25z m-1635 -4 c0 -10 -7 -21 -15
-25 -21 -8 -19 -23 5 -29 23 -6 27 -37 5 -37 -12 0 -15 -15 -15 -75 0 -72 -1
-75 -24 -75 -22 0 -24 5 -31 70 -4 39 -11 70 -16 70 -5 0 -9 11 -9 25 0 14 5
25 10 25 6 0 10 8 10 17 0 25 30 53 57 53 16 0 23 -6 23 -19z m1235 -16 c16
-15 25 -36 25 -55 l0 -30 -65 0 c-53 0 -63 -3 -59 -15 7 -17 64 -21 64 -5 0 6
14 10 30 10 35 0 37 -8 10 -38 -61 -65 -160 -25 -160 65 0 59 33 93 90 93 30
0 47 -6 65 -25z m-1841 9 c9 -3 16 -17 16 -30 0 -19 -5 -24 -25 -24 -30 0 -43
24 -25 45 14 17 13 17 34 9z m1287 -14 c13 -7 19 -7 19 0 0 5 11 10 24 10 20
0 24 -6 30 -46 3 -26 6 -69 6 -95 0 -46 -2 -49 -25 -49 -14 0 -25 5 -25 12 0
9 -3 9 -12 0 -7 -7 -28 -12 -48 -12 -91 0 -121 136 -40 177 31 16 46 16 71 3z
m-191 -10 c0 -7 6 -7 19 0 30 16 41 12 41 -13 0 -16 -9 -28 -25 -35 -23 -10
-25 -17 -25 -72 0 -56 -1 -60 -24 -60 -20 0 -24 6 -30 46 -11 86 -8 132 12
137 29 8 32 7 32 -3z m-99 -29 c17 -17 29 -40 29 -55 0 -25 -2 -26 -66 -26
-66 0 -79 -10 -41 -34 12 -8 21 -6 36 8 11 10 31 16 48 14 l28 -3 -32 -32
c-40 -42 -88 -45 -130 -9 -23 20 -28 32 -28 71 0 39 5 51 28 71 40 34 90 32
128 -5z m-1195 -66 c26 -68 44 -94 44 -64 0 7 9 43 20 80 19 64 23 69 49 69
l28 0 -35 -114 c-34 -108 -38 -115 -64 -118 -16 -3 -32 0 -36 6 -7 12 -92 206
-92 211 0 5 44 12 51 8 3 -1 19 -36 35 -78z m884 34 c0 -62 13 -89 45 -89 30
0 33 11 27 83 l-5 59 29 -4 29 -3 0 -90 0 -89 -67 -3 c-62 -3 -68 -1 -87 23
-16 21 -21 41 -21 90 0 63 2 67 43 73 4 0 7 -22 7 -50z m-289 2 c17 -17 29
-40 29 -55 0 -25 -2 -26 -66 -26 -66 0 -79 -10 -41 -34 12 -8 21 -6 36 8 11
10 31 16 48 14 l28 -3 -32 -32 c-40 -42 -88 -45 -130 -9 -23 20 -28 32 -28 71
0 39 5 51 28 71 40 34 90 32 128 -5z m-171 12 c0 -3 -12 -46 -27 -95 -26 -87
-27 -88 -58 -88 -34 0 -28 -9 -84 128 l-21 52 29 0 c25 0 31 -6 46 -47 26 -69
31 -71 45 -11 7 29 15 56 17 61 5 9 53 10 53 0z m-206 -64 c11 -108 9 -119
-18 -119 -29 0 -36 21 -36 113 0 64 1 67 24 67 21 0 24 -5 30 -61z"/>
<path d="M7810 870 c-14 -26 -5 -57 22 -71 17 -9 24 -7 41 10 17 17 19 25 11
48 -12 36 -57 44 -74 13z"/>
<path d="M8030 881 c-15 -29 -12 -46 9 -65 32 -29 80 9 64 52 -14 36 -56 44
-73 13z"/>
<path d="M7595 860 c-24 -27 -13 -68 22 -76 46 -12 71 46 35 79 -24 22 -35 21
-57 -3z"/>
<path d="M7254 836 c-10 -41 4 -66 36 -66 24 0 31 5 36 27 9 34 -6 57 -39 61
-21 3 -28 -2 -33 -22z"/>
<path d="M5889 781 c-20 -16 -22 -23 -14 -47 19 -53 91 -38 83 17 -2 12 -12
28 -24 36 -19 12 -24 11 -45 -6z"/>
<path d="M7050 831 c-15 -30 -12 -48 12 -65 39 -28 82 19 58 64 -14 26 -56 26
-70 1z"/>
<path d="M6513 823 c-26 -10 -12 -23 23 -23 31 0 35 2 24 15 -13 15 -25 17
-47 8z"/>
<path d="M6100 795 c-11 -13 -7 -15 24 -15 37 0 48 13 20 24 -23 9 -30 8 -44
-9z"/>
<path d="M5592 768 c-36 -36 4 -101 48 -78 37 20 21 90 -20 90 -9 0 -21 -5
-28 -12z"/>
<path d="M5264 755 c-27 -19 -10 -30 28 -18 32 9 32 10 12 21 -17 9 -25 8 -40
-3z"/>
<path d="M4664 725 c-26 -19 -13 -28 27 -17 32 8 33 9 13 20 -16 9 -25 8 -40
-3z"/>
</g>
</svg> 