<?xml version="1.0" encoding="utf-8" ?><svg xmlns="http://www.w3.org/2000/svg" xmlns:xlink="http://www.w3.org/1999/xlink" width="905" height="276" viewBox="0 0 905 276"><path fill="#2657C0" d="M367.911 169.142C377.36 169.201 387.026 168.38 396.479 167.947C417.439 166.974 438.394 165.879 459.341 164.66L596.079 158.061L757.177 150.172C780.261 149.145 803.337 147.952 826.404 146.595C835.201 146.096 844.043 145.998 852.822 145.267C852.911 156.947 853.997 168.831 854.554 180.505C855.226 194.602 855.448 208.907 856.751 222.952L647.042 233.476C614.582 234.868 582.132 236.476 549.694 238.301C537.568 238.941 525.424 239.254 513.308 240.089L465.695 242.289C454.377 242.793 442.956 243.059 431.672 244.07C411.818 244.74 391.98 246.608 372.106 246.539C369.71 221.196 370.177 194.767 367.911 169.142ZM696.033 203.973C697.715 203.765 699.408 203.907 700.667 202.737C700.751 201.551 700.688 200.454 700.556 199.274L700.341 193.049C702.688 194.571 704.748 195.52 707.601 194.873C709.702 194.396 711.406 192.995 712.492 191.168C713.969 188.683 714.285 185.544 713.537 182.771C712.905 180.429 711.489 178.416 709.363 177.204C707.911 176.376 706.158 176.126 704.507 176.222C703.53 176.606 701.068 177.938 700.136 177.942C698.125 177.95 697.094 175.838 694.929 177.47C694.634 186.209 695.702 195.22 696.033 203.973ZM591.847 184.017C589.23 182.579 587.069 181.471 584.037 182.378C581.9 183.017 580.222 184.482 579.202 186.452C577.872 189.02 577.797 192.142 578.689 194.863C579.198 196.416 580.224 197.927 581.368 199.085C584.163 200.546 585.705 201.26 588.862 200.276C589.495 200.079 591.143 199.285 591.718 199.321C593.754 199.451 595.279 200.723 597.313 199.698C597.438 195.446 597.204 179.826 596.106 176.249L595.581 176.005C594.095 176.098 593.054 175.916 591.878 176.886C590.951 178.904 591.797 181.829 591.847 184.017ZM676.824 180.543C675.424 179.309 673.769 177.817 671.763 177.903C669.989 177.98 668.276 178.935 666.485 179.048C664.528 179.171 662.471 178.553 660.411 178.621C660.965 181.752 661.046 195.442 661.999 196.73C663.433 196.888 664.529 196.807 665.93 196.532C668.093 192.969 663.539 185.076 667.992 182.085C669.39 181.767 670.722 182.233 671.901 183.012C672.939 183.696 673.295 184.611 673.518 185.793C673.586 186.164 673.645 186.537 673.694 186.911C673.861 189.95 673.916 193.044 674.294 196.063C675.645 196.003 677.511 196.171 678.618 195.317C679.429 191.967 676.819 183.897 680.194 181.977C681.088 181.469 682.183 181.438 683.15 181.733C684.153 182.037 685.058 182.687 685.559 183.624C687.167 186.627 686.242 192.225 686.635 195.669C688.235 195.545 689.844 195.455 691.43 195.214C691.18 190.616 692 182.323 688.346 179.024C686.927 177.744 684.993 177.304 683.136 177.092C680.547 177.742 678.835 178.828 676.824 180.543ZM435.174 190.069C436.19 192.395 437.281 194.712 438.207 197.074C439.75 200.665 441.44 204.256 442.778 207.926L448.496 207.571C450.466 201.39 452.387 195.195 454.26 188.985L449.211 189.125C447.97 193.639 446.42 198.255 445.574 202.852C443.822 198.568 442.003 194.291 440.49 189.915C438.752 189.941 436.892 189.842 435.174 190.069ZM737.867 191.989L738.105 192.771C739.614 193.13 740.983 192.921 742.499 192.736C742.372 188.581 742.161 184.405 742.429 180.253C744.298 179.723 745.916 179.391 747.166 177.799C747.512 176.888 747.791 176.226 747.568 175.25C747.217 174.746 746.964 174.177 746.396 173.925C740.869 176.607 741.804 174.039 736.852 175.345C737.188 180.768 737.063 186.639 737.867 191.989ZM722.39 175.498C717.381 176.937 714.488 182.161 715.928 187.167C717.367 192.172 722.594 195.064 727.603 193.626C732.612 192.187 735.506 186.963 734.067 181.957C732.627 176.951 727.399 174.059 722.39 175.498ZM788.042 166.211C786.595 166.355 785.676 166.169 784.657 167.272C783.88 169.517 784.863 172.245 784.913 174.611C782.508 173.107 780.562 171.987 777.625 172.683C775.414 173.207 773.671 174.519 772.489 176.45C771.077 178.758 770.769 181.663 771.411 184.265C771.974 186.551 772.996 188.12 774.716 189.709C778.011 191.458 779.818 191.228 783.289 190.164C785.531 189.478 787.813 190.778 790.46 190.214C790.327 186.776 790.231 167.797 788.581 166.21L788.042 166.211ZM485.458 205.831L490.095 205.172C489.867 201.88 488.482 193.995 490.156 191.346C491.14 191.123 491.936 191.124 492.622 190.345C492.543 189.024 492.515 188.762 491.768 187.683L489.447 186.697C489.552 184.438 491.962 183.179 491.852 180.819C490.605 179.968 489.735 180.082 488.244 180.259C485.397 181.861 483.605 185.343 482.749 188.468C482.535 189.248 482.406 189.942 482.737 190.708C483.35 191.309 484.271 192.12 484.573 192.929C485.649 195.818 485.153 202.459 485.458 205.831ZM658.154 185.515C656.915 182.798 655.185 180.354 652.283 179.24C650.189 178.435 647.744 178.742 645.748 179.677C643.346 180.798 641.502 182.845 640.635 185.349C639.801 187.717 639.764 190.603 640.864 192.894C641.951 195.159 643.976 196.506 646.299 197.265C648.605 198.019 650.97 198.166 653.178 197.024C655.642 195.75 657.157 193.592 658.279 191.131C654.993 190.9 653.658 191.864 650.785 193.012C649.585 193.491 648.304 193.709 647.119 193.068C646.115 192.526 645.925 191.855 645.611 190.852C647.549 188.534 654.448 190.257 657.557 189.551C658.407 188.369 658.131 186.952 658.154 185.515ZM634.084 184.485C635.793 184.096 637.516 183.931 638.574 182.372C636.662 179.521 633.915 181.182 632.923 176.448C631.795 175.794 630.068 176.192 628.811 176.311C629.239 180.348 627.251 180.511 627.299 183.048C627.315 183.909 628.53 184.594 628.991 185.211C630.668 187.458 628.05 194.284 631.591 197.256C633.039 198.471 635.364 198.46 637.16 198.258C637.931 198.172 638.55 197.839 639.07 197.264C638.815 196.189 638.826 195.058 637.836 194.459C635.997 193.345 635.337 193.994 634.624 191.53C634.016 189.431 634.172 186.679 634.084 184.485ZM512.743 195.482C512.674 193.039 513.16 189.172 512.029 187.081C510.946 186.284 510.65 186.282 509.291 186.174C508.446 186.64 508.088 186.816 507.796 187.798C506.675 191.578 510.345 197.867 505.708 200.495C504.831 200.992 503.994 200.988 503.065 200.648C502.156 200.314 501.202 199.402 500.808 198.518C499.609 195.826 500.701 188.065 499.339 186.64C498.005 186.739 496.235 186.614 495.263 187.645C494.579 191.149 495.216 199.457 497.101 202.444C497.796 203.544 499.496 204.646 500.75 204.883C501.919 205.105 511.816 203.794 512.92 203.129C513.806 201.607 512.879 197.259 512.743 195.482ZM428.973 182.97C427.659 183.732 427.185 185.398 427.903 186.737C428.62 188.076 430.269 188.606 431.633 187.936C432.558 187.482 433.162 186.559 433.207 185.53C433.252 184.501 432.731 183.529 431.849 182.996C430.967 182.462 429.864 182.452 428.973 182.97ZM617.814 193.106C613.111 192.76 612.361 195.359 608.81 195.563C607.992 195.61 607.127 195.433 606.512 194.863C605.73 194.138 605.565 193.905 605.522 192.856C605.563 192.814 605.603 192.77 605.646 192.73C607.537 190.992 615.159 191.656 617.863 191.637C617.935 188.343 617.702 185.69 615.31 183.202C613.875 181.71 612.002 180.924 609.931 180.907C607.172 180.884 603.856 181.884 601.869 183.863C600.326 185.4 599.758 187.362 599.802 189.486C599.864 192.411 600.882 195.188 603.031 197.223C605.051 199.104 607.734 200.106 610.493 200.011C612.536 199.936 614.082 198.911 615.398 197.438C616.541 196.16 617.387 194.778 617.814 193.106ZM428.107 190.001C428.454 195.545 428.102 202.321 429.431 207.608C430.683 208.275 432.316 208.014 433.694 207.96L433.232 189.939L428.107 190.001ZM534.069 193.624C533.089 190.674 531.953 187.577 528.998 186.063C526.723 184.898 523.452 184.967 521.072 185.774C519.192 186.411 517.693 187.687 516.813 189.474C515.573 191.992 515.464 195.229 516.391 197.865C517.263 200.344 519.099 202.476 521.494 203.591C523.326 204.444 525.424 204.64 527.335 203.926C530.442 202.764 532.302 200.251 533.727 197.408C529.986 197.152 528.9 198.432 525.602 199.474C524.727 199.751 523.703 199.869 522.871 199.401C521.946 198.88 521.283 198.178 520.988 197.155C523.287 194.563 530.36 197.267 533.459 195.417C533.79 195.22 533.959 194.037 534.069 193.624ZM541.794 202.74C541.688 199.251 540.717 192.923 542.796 190.093C544.324 189.234 545.61 189.399 546.705 187.969C546.921 186.654 546.744 185.694 546.422 184.431L545.555 184.113C544.476 184.626 542.572 185.955 541.419 185.508C541.12 185.392 540.793 185.083 540.546 184.88C539.14 184.947 537.993 185.125 536.64 185.537C535.627 189.968 537.086 198.073 537.452 202.927L541.794 202.74ZM753.123 191.426C757.086 193.052 763.836 191.786 768.303 191.45C768.668 189.286 767.909 175.326 767.007 173.766C766.321 173.656 765.656 173.537 764.958 173.559C763.909 173.946 763.29 174.212 762.669 175.165C759.613 174.505 755.245 173.388 752.398 175.131C750.807 176.104 750.011 177.891 749.623 179.646C748.915 182.853 748.907 186.032 750.742 188.859C751.393 189.863 752.222 190.649 753.123 191.426ZM420.44 186.017L415.259 203.79C412.916 198.043 410.685 192.216 408.125 186.563L403.214 187.23L406.885 195.938C408.655 200.089 410.207 205.242 412.691 208.994C413.24 209.151 417.268 208.8 417.736 208.518C419.594 207.399 424.566 189.183 425.523 185.938L420.44 186.017ZM806.783 188.63C807.719 189.225 808.974 189.891 810.127 189.661C810.749 189.536 811.183 189.312 811.517 188.766C813.225 185.974 811.623 174.94 811.579 171.157L806.734 171.506L806.69 171.71C806.574 172.228 806.507 172.571 806.079 172.926C804.17 172.102 802.491 171.248 800.373 171.339C800.086 171.352 799.805 171.353 799.518 171.385C797.131 172.494 795.002 173.428 794.022 176.08C793.036 178.744 792.097 182.833 793.42 185.536C794.367 187.471 796.255 188.562 798.227 189.191C800.302 189.854 802.122 190.046 804.253 189.501C804.768 189.369 806.513 188.488 806.783 188.63ZM555.704 183.301C552.871 184.357 550.808 185.548 549.494 188.393C548.305 190.969 548.342 193.786 549.33 196.417C550.353 199.142 552.175 200.754 554.632 202.197C557.468 202.056 559.893 202.095 562.237 200.284C563.347 201.276 564.14 201.569 565.609 201.768C566.508 201.406 566.97 201.331 567.359 200.362C568.892 196.536 567.262 187.597 567.281 183.163C565.414 183.253 563.281 183.176 561.514 183.802L561.642 184.954C559.662 184.056 558.063 183.263 555.858 183.302C555.807 183.303 555.755 183.301 555.704 183.301ZM459.548 189.343C457.183 191.708 455.542 194.277 455.573 197.757C455.597 200.235 456.608 202.601 458.382 204.332C460.199 206.093 462.644 207.059 465.176 207.014C467.528 206.983 469.568 206.083 471.185 204.379C472.23 203.278 473.081 201.803 473.368 200.308C473.281 200.308 473.195 200.307 473.109 200.308C472.08 200.321 470.975 200.138 469.972 200.446C467.677 201.152 465.57 203.406 462.957 202.478C461.878 202.094 461.495 201.375 461.073 200.411L461.576 199.682C464.858 198.319 469.698 198.856 473.234 198.801C473.979 197.587 473.891 195.299 473.535 193.947C473.075 192.203 471.52 190.788 469.983 189.944C467.19 188.409 464.353 187.806 461.273 188.734C460.69 188.913 460.114 189.116 459.548 189.343Z"/><path fill="#2657C0" d="M703.301 180.952C705.889 180.271 708.545 181.798 709.255 184.377C709.966 186.956 708.467 189.626 705.894 190.365C704.205 190.85 702.384 190.39 701.128 189.161C699.872 187.932 699.373 186.123 699.823 184.424C700.273 182.726 701.601 181.4 703.301 180.952Z"/><path fill="#2657C0" d="M779.541 176.539C780.11 176.55 780.694 176.574 781.253 176.69C782.584 176.967 783.861 177.884 784.579 179.035C785.319 180.221 785.464 181.583 785.139 182.93C784.652 184.954 783.355 185.876 781.71 186.923C781.124 186.916 780.518 186.901 779.941 186.791C778.683 186.551 777.487 185.638 776.798 184.577C776.005 183.355 775.842 181.956 776.174 180.555C776.663 178.497 777.857 177.595 779.541 176.539Z"/><path fill="#2657C0" d="M585.962 186.259C586.381 186.224 586.802 186.209 587.222 186.215C588.636 186.241 589.979 186.837 590.946 187.868C591.917 188.899 592.325 190.282 592.228 191.682C592.073 193.891 590.944 195.128 589.356 196.477C588.89 196.514 588.42 196.538 587.953 196.516C586.57 196.46 585.267 195.854 584.334 194.834C583.375 193.77 583.017 192.332 583.147 190.925C583.348 188.749 584.401 187.606 585.962 186.259Z"/><path fill="#2657C0" d="M800.664 175.732C801.334 175.7 802.054 175.657 802.721 175.739C804.125 175.912 805.319 176.637 806.143 177.781C806.964 178.921 807.258 180.159 807.008 181.542C806.636 183.6 805.495 184.611 803.864 185.715C803.41 185.802 802.94 185.886 802.476 185.877C801.315 185.854 800.036 185.22 799.269 184.36C798.296 183.268 797.998 181.895 798.07 180.466C798.179 178.296 799.157 177.124 800.664 175.732Z"/><path fill="#2657C0" d="M556.342 187.684C557.005 187.638 557.698 187.598 558.357 187.697C559.771 187.91 561.014 188.65 561.839 189.823C562.655 190.986 562.897 192.35 562.631 193.737C562.244 195.76 561.178 196.724 559.561 197.797C559.217 197.841 558.876 197.88 558.53 197.889C557.26 197.925 555.936 197.362 555.033 196.474C553.995 195.455 553.595 194.09 553.643 192.665C553.72 190.393 554.767 189.135 556.342 187.684Z"/><path fill="#2657C0" d="M757.499 177.918C758.12 177.924 758.782 177.933 759.389 178.074C760.625 178.361 761.826 179.234 762.509 180.295C763.305 181.532 763.432 183.053 763.076 184.46C762.536 186.599 761.275 187.475 759.494 188.522C757.604 188.249 756.233 187.838 755.009 186.265C754.151 185.161 753.856 183.911 754.057 182.534C754.386 180.288 755.817 179.198 757.499 177.918Z"/><path fill="#2657C0" d="M724.31 179.17C724.683 179.234 725.053 179.314 725.419 179.409C726.888 179.798 728.078 180.572 728.832 181.916C729.541 183.179 729.671 184.538 729.274 185.924C728.642 188.13 727.334 189.001 725.439 190.013C725.294 189.984 725.149 189.953 725.005 189.92C723.371 189.543 722.06 188.934 721.174 187.447C720.376 186.11 720.191 184.677 720.623 183.184C721.235 181.064 722.496 180.179 724.31 179.17Z"/><path fill="#2657C0" d="M607.595 184.973C608.467 184.952 609.551 184.956 610.353 185.318C611.416 185.797 612.396 186.608 612.849 187.691L612.455 188.38L611.249 188.39C609.823 188.523 608.102 188.832 606.691 188.634C605.883 188.521 605.68 188.429 605.188 187.792C605.453 186.54 606.663 185.76 607.595 184.973Z"/><path fill="#2657C0" d="M647.213 183.155C648.339 183.05 649.607 182.934 650.671 183.406C651.812 183.913 652.506 184.764 652.955 185.879L652.525 186.427L651.453 186.284C650.138 186.46 648.73 186.726 647.404 186.704C646.426 186.688 645.968 186.698 645.29 185.982C645.4 184.761 646.397 183.978 647.213 183.155Z"/><path fill="#2657C0" d="M463.685 191.974C465.146 192.057 466.738 192.562 467.809 193.608C468.388 194.174 468.375 194.305 468.381 195.101C467.154 195.942 466.224 195.76 464.771 195.788C463.699 195.898 462.504 196.12 461.465 195.77C461.014 195.619 460.966 195.254 460.766 194.846C461.303 193.505 462.553 192.783 463.685 191.974Z"/><path fill="#2657C0" d="M522.731 189.399C523.807 189.289 524.958 189.157 525.992 189.55C527.262 190.034 527.912 190.877 528.409 192.054L527.909 192.64L526.834 192.468C525.592 192.643 524.284 192.889 523.03 192.894C521.968 192.898 521.531 192.941 520.768 192.184C520.932 190.978 521.909 190.213 522.731 189.399Z"/><path d="M571.712 31.6091L579.507 31.2006C581.698 71.7988 583.296 112.572 584.677 153.207C580.099 153.62 552.088 155.841 550.012 154.671L549.458 152.61L548.77 152.569L546.562 155.189C538.89 155.92 531.144 156.006 523.447 156.412C513.426 156.939 503.322 157.721 493.294 157.89C490.076 155.384 487.743 152.358 485.366 149.093C478.064 136.737 475.377 123.894 476.231 109.571C477 96.6686 481.768 83.5757 491.654 74.8706C499.707 67.748 510.285 64.1575 521.013 64.906C531.612 65.5935 539.454 70.2667 546.307 78.1176C546.193 63.0627 545.175 47.9351 544.504 32.8905C553.521 32.082 562.666 32.0048 571.712 31.6091ZM532.143 136.44C537.287 135.632 541.331 133.511 544.429 129.22C548.199 123.999 548.814 117.191 547.752 110.991C546.871 105.843 544.389 101.027 540.033 97.9909C536.096 95.2469 532.205 94.8031 527.533 95.0808C522.4 95.9343 518.366 97.8707 515.268 102.195C511.626 107.278 510.957 114.096 511.985 120.123C512.886 125.401 515.281 130.243 519.736 133.384C523.466 136.012 527.665 136.697 532.143 136.44Z"/><path d="M167.74 55.3944L172.922 55.1295C173.708 66.073 173.954 77.1241 174.413 88.0903L176.861 146.106C177.353 157.67 177.214 169.566 178.503 181.047C166.965 181.06 155.211 181.905 143.671 182.454C142.054 166.14 142.024 148.53 141.344 132.071C127.208 131.859 112.815 133.391 98.6624 133.815C99.2575 140.567 99.3207 147.445 99.6227 154.22C100.068 164.206 100.648 174.206 100.774 184.202C91.9253 185.005 83.0032 185.073 74.1284 185.524L65.9613 185.982C63.4965 144.099 62.3854 102.048 60.5369 60.1244C72.1743 59.7599 83.8056 59.2232 95.4271 58.5145C97.0647 74.1491 96.4369 90.154 97.6561 105.858C111.774 104.908 125.98 104.87 140.113 103.989L138.186 56.6744L167.74 55.3944Z"/><path d="M242.79 75.5404C271.668 75.3446 295.288 98.4833 295.667 127.341C296.046 156.198 273.043 179.948 244.169 180.51C215.035 181.077 191.008 157.836 190.625 128.719C190.243 99.6015 213.651 75.738 242.79 75.5404ZM247.206 148.536C251.922 147.075 255.491 144.405 257.804 139.964C260.927 133.97 261.002 125.963 258.993 119.612C257.567 115.105 254.679 111.039 250.405 108.847C246.862 107.03 243.544 107.133 239.701 107.451C235.273 108.443 231.906 110.599 229.444 114.485C225.831 120.188 225.549 128.349 227.051 134.754C228.176 139.551 230.579 144.149 234.887 146.795C238.732 149.156 242.863 149.142 247.206 148.536Z"/><path d="M757.902 54.5067C759.229 54.4346 760.557 54.4024 761.886 54.4101C775.351 54.5791 788.896 59.6956 798.355 69.3971C808.382 79.6813 812.452 93.0126 812.248 107.178C812.05 121.011 807.396 133.212 797.396 142.909C785.552 143.381 773.415 143.653 761.627 144.776C749.602 144.988 737.629 146.128 725.595 146.134C724.553 145.258 723.524 144.367 722.507 143.46C712.545 134.525 708.201 121.445 707.501 108.411C706.761 94.605 710.388 81.4133 719.778 71.0092C729.681 60.0383 743.443 55.2736 757.902 54.5067ZM761.64 126.597C766.309 125.945 769.954 124.214 772.845 120.376C776.708 115.246 777.616 108.001 776.709 101.79C775.93 96.4608 773.712 91.1842 769.277 87.8946C765.869 85.3668 762.039 84.6158 757.877 84.9844C753.079 85.7602 749.532 87.4754 746.631 91.5311C742.771 96.9279 742.233 104.442 743.337 110.8C744.227 115.93 746.418 121.025 750.829 124.071C754.194 126.394 757.647 126.799 761.64 126.597Z"/><path d="M644.277 59.3787C647.691 59.1482 651.119 59.2011 654.524 59.5369C667.544 60.8417 679.627 66.1187 688.026 76.3926C696.894 87.2408 699.889 102.006 698.527 115.714C691.533 116.29 684.354 116.22 677.328 116.511L632.254 118.378C633.25 123.648 634.501 128.493 639.212 131.709C642.304 133.811 646.105 134.6 649.779 133.903C654.916 132.912 657.665 129.624 660.416 125.526C672.004 124.796 683.603 124.262 695.209 123.923L696.415 124.121C696.789 124.791 696.915 125.05 696.879 125.826C696.526 133.375 689.266 143.301 683.918 148.283C676.866 149.623 666.679 149.397 659.249 149.74C644.903 150.402 630.549 151.319 616.201 151.848L615.351 151.153C604.494 142.205 599.058 130.154 597.753 116.302C596.407 102.01 598.941 87.7804 608.325 76.4923C617.495 65.46 630.312 60.6704 644.277 59.3787ZM631.861 101.184C637.594 100.943 643.389 100.439 649.123 100.401C653.624 100.277 658.167 100.263 662.643 99.7564C662.094 95.7318 661.143 92.4909 657.766 89.9282C654.136 87.1729 649.63 86.8573 645.244 87.1005C640.894 87.977 637.332 89.3027 634.776 93.1451C633.141 95.6018 632.398 98.3169 631.861 101.184Z"/><path d="M464.97 68.2007L470.477 68.015C467.01 78.5843 462.601 88.9948 458.638 99.403L435.289 160.872L394.764 162.746C391.776 155.403 387.932 148.231 384.483 141.081L364.813 100.241C360.234 91.3521 355.946 82.15 351.852 73.0273C364.674 72.9704 377.65 71.9708 390.479 71.5052C393.746 77.7458 396.243 84.5347 398.971 91.0289L414.275 127.478C420.775 108.48 426.021 88.9602 432.228 69.849C442.898 68.4715 454.193 68.6609 464.97 68.2007Z"/><path d="M338.432 41.7012C338.604 41.6714 338.636 41.6613 338.836 41.6526C340.029 41.6006 340.447 41.6409 341.291 42.4246C342.125 48.473 341.981 54.926 342.223 61.0377L343.596 93.7435L345.555 139.836C346.076 151.17 346.81 162.578 346.839 173.923C335.944 173.988 325.075 174.814 314.18 175.059C313.396 175.074 313.126 175.113 312.43 174.701C310.821 170.038 311.303 155.646 311.013 149.67L307.989 81.1129C307.461 68.4311 307.267 55.6617 306.242 43.0105L338.432 41.7012Z"/></svg>